# xmcd
# 
# Track frame offsets:
#     150
#     16621
#     30066
#     47825
#     66245
#     77547
#     91759
#     104730
#     119467
#     135981
#     153546
#     174546
#     190569
#     204278
#     221987
#     235363
# 
# Disc length: 3406
# 
# Revision: 2
# Processed by: cddbd v1.5.2PL0 Copyright (c) Steve Scherf et al.
# Submitted via: BonkEnc v1.0
# 
DISCID=ca0d4c10
DTITLE=Chico Rey and Paraná Vol. 16 - Vol. 16 Ao Vivo
DYEAR=2006
DGENRE=Sertanejo
TTITLE0=Canarinho prisioneiro
TTITLE1=Leão domado
TTITLE2=Volta pra mim
TTITLE3=Você não sabe amar
TTITLE4=Pé de bode
TTITLE5=Amor rebelde
TTITLE6=Tá com raiva de mim
TTITLE7=Minha serenata
TTITLE8=Um degrau na escada
TTITLE9=De lá pra ca
TTITLE10=Coração aberto
TTITLE11=Tranque a porta e me beija
TTITLE12=Alma transparente
TTITLE13=Operario vida viola
TTITLE14=Se a casa cair
TTITLE15=Quem será seu outro amor
EXTD=NELDVD:2006
EXTT0=
EXTT1=
EXTT2=
EXTT3=
EXTT4=
EXTT5=
EXTT6=
EXTT7=
EXTT8=
EXTT9=
EXTT10=
EXTT11=
EXTT12=
EXTT13=
EXTT14=
EXTT15=
PLAYORDER=
